HIERARCHY
ROOT HipCenter
{
    OFFSET 0.0 0.0 -0.0
    CHANNELS 6 Xposition Yposition Zposition Zrotation Xrotation Yrotation
    JOINT Spine
    {
        OFFSET 0.0 27.17871856689453 0.0
        CHANNELS 3 Zrotation Xrotation Yrotation
        JOINT ShoulderCenter
        {
            OFFSET 0.0 20.40505599975586 0.0
            CHANNELS 3 Zrotation Xrotation Yrotation
            JOINT LeftShoulder
            {
                OFFSET 17.68073081970215 0.0 0.0
                CHANNELS 3 Zrotation Xrotation Yrotation
                JOINT LeftElbow
                {
                    OFFSET 24.34488868713379 0.0 0.0
                    CHANNELS 3 Zrotation Xrotation Yrotation
                    JOINT LeftWrist
                    {
                        OFFSET 24.246692657470703 0.0 0.0
                        CHANNELS 3 Zrotation Xrotation Yrotation
                        JOINT LeftHand
                        {
                            OFFSET 6.725795745849609 0.0 0.0
                            CHANNELS 3 Zrotation Xrotation Yrotation
                            End Site
                            {
                                OFFSET 2.6903181076049805 0.0 0.0
                            }
                        }
                    }
                }
            }
            JOINT RightShoulder
            {
                OFFSET -17.68073081970215 0.0 0.0
                CHANNELS 3 Zrotation Xrotation Yrotation
                JOINT RightElbow
                {
                    OFFSET -24.34488868713379 0.0 0.0
                    CHANNELS 3 Zrotation Xrotation Yrotation
                    JOINT RightWrist
                    {
                        OFFSET -24.246692657470703 0.0 0.0
                        CHANNELS 3 Zrotation Xrotation Yrotation
                        JOINT RightHand
                        {
                            OFFSET -6.725795745849609 0.0 0.0
                            CHANNELS 3 Zrotation Xrotation Yrotation
                            End Site
                            {
                                OFFSET -2.6903181076049805 0.0 0.0
                            }
                        }
                    }
                }
            }
            End Site
            {
                OFFSET 0.0 8.162023544311523 0.0
            }
        }
    }
    JOINT LeftHip
    {
        OFFSET 8.574041366577148 0.0 0.0
        CHANNELS 3 Zrotation Xrotation Yrotation
        JOINT LeftKnee
        {
            OFFSET 0.0 -39.027137756347656 0.0
            CHANNELS 3 Zrotation Xrotation Yrotation
            JOINT LeftAnkle
            {
                OFFSET 0.0 -36.775630950927734 0.0
                CHANNELS 3 Zrotation Xrotation Yrotation
                JOINT LeftFoot
                {
                    OFFSET 0.0 -12.728240966796875 0.0
                    CHANNELS 3 Zrotation Xrotation Yrotation
                    End Site
                    {
                        OFFSET 0.0 0.0 5.091296195983887
                    }
                }
            }
        }
    }
    JOINT RightHip
    {
        OFFSET -8.574041366577148 0.0 0.0
        CHANNELS 3 Zrotation Xrotation Yrotation
        JOINT RightKnee
        {
            OFFSET 0.0 -39.027137756347656 0.0
            CHANNELS 3 Zrotation Xrotation Yrotation
            JOINT RightAnkle
            {
                OFFSET 0.0 -36.775630950927734 0.0
                CHANNELS 3 Zrotation Xrotation Yrotation
                JOINT RightFoot
                {
                    OFFSET 0.0 -12.728240966796875 0.0
                    CHANNELS 3 Zrotation Xrotation Yrotation
                    End Site
                    {
                        OFFSET 0.0 0.0 5.091296195983887
                    }
                }
            }
        }
    }
}
MOTION
Frames: 4
Frame Time: 0.03333333333333333
12.30974006652832 -18.834341049194336 -375.5722961425781 6.0361936107163485 12.787556978078038 -153.96104842866515 -0.6499498747693241 -2.679502958031091 -0.21001240772970525 -1.5721156808717176e-08 -3.984898195446547e-07 -0.14413289019159323 -43.68157957673872 -44.641231780863514 41.94027749688771 -5.010728701462977e-06 -1.103325698115356e-06 39.23659784700642 -1.6745347718676128e-05 -76.23469874421356 11.230588868042807 0.0 0.0 3.975693351829396e-16 66.54799384361179 -26.844750678322292 -19.37320184995375 6.8477683578190844e-06 -3.3472034922809096e-07 -47.43606047984368 179.99999618092536 29.03016016539339 174.00942340134443 0.0 1.5902773407317584e-15 0.0 100.9094602812363 77.7610244644504 -91.92531036115352 -153.05797882923483 -80.26380911598709 -123.12909372418217 -8.4808075701907 48.959879317136036 12.71745066514213 -1.5902773407317588e-15 3.1805546814635176e-15 7.951386703658794e-16 -91.85410823423862 57.884805630053165 85.58093472416398 114.2239606570914 -73.43380156409589 54.25880715763831 54.94262277405214 58.81441988854545 -65.2949761922511 -1.5902773407317584e-15 0.0 0.0
12.39896011352539 -18.814420700073242 -375.54071044921875 6.204879605889443 12.763415201831714 -153.95955789727267 -0.63518455177638 -2.6806910303789886 -0.21641095353970424 -4.238973158440663e-07 -1.9759865980553982e-07 -0.015293918566088381 -43.62196043962677 -44.53917258466877 41.80430805945739 -6.027413981812413e-07 -1.1928007590222525e-06 39.58591497718473 1.2800545720563237e-06 -59.031111721845214 8.389036762964716 6.361109362927035e-15 7.951386703658796e-16 2.3854160110976384e-15 67.64681300986284 -25.27376509554994 -19.250766734420427 -2.9158739256502076e-06 -3.6275775940138856e-07 -47.64120460435262 -179.99999539756635 18.028816915853387 177.5826066052201 0.0 0.0 0.0 100.06695468761207 77.55124043657482 -90.8568839528295 -150.54164902772598 -80.03416025580451 -120.34748602679515 -0.7356769671869692 43.30005063391524 6.4482674996204095 4.4139062980501586e-32 -3.1805546814635168e-15 1.5902773407317584e-15 -91.5254319217435 57.92543909118665 85.29491187985818 114.56158302359943 -73.30034158099157 54.52456749909977 55.37239157673394 59.17059867759781 -66.02715124601946 0.0 0.0 0.0
12.391109466552734 -18.782258987426758 -375.5997009277344 6.232476379015346 12.90462043130533 -154.31008611464895 -0.7798592204325452 -2.574374593991644 -0.22218826570868735 -1.5906396410971682e-06 -3.119773232639335e-07 0.24198291933466937 -43.42825071621846 -44.65016441449967 41.1718185007734 -1.8791184091873062e-06 2.1541515055405025e-06 39.86480362645837 7.765625346496739e-06 -76.67970810639251 11.355288109025858 0.0 -3.975693351829396e-16 0.0 67.69202027567283 -25.308855060848728 -19.084713781072914 7.279414009241848e-08 7.730799865446403e-07 -47.878593642643565 179.999997468679 -38.894022763589305 176.1623723288837 8.827812596100317e-32 6.3611093629270335e-15 -1.5902773407317584e-15 100.72428658700744 77.85922346120194 -91.32912964949765 -149.84116823251287 -79.39321683197582 -119.96720805149192 6.799985613463501 43.92040915357747 1.6756670627796342 3.1805546814635168e-15 8.827812596100317e-32 3.1805546814635168e-15 -91.57040626344006 57.600787537151426 85.54871837247757 114.89139728426112 -73.44914709652431 54.5901643336516 55.93393809117891 59.79501662422138 -66.66044450069056 1.5902773407317584e-15 2.2069531490250793e-32 1.5902773407317584e-15
12.370349884033203 -18.777400970458984 -375.6434020996094 6.191060760047606 12.980661828308003 -154.3975026286982 -0.7823892318004261 -2.487400179122404 -0.2148551717133275 6.843405298691633e-08 2.2853589647472353e-07 0.33137817521342167 -43.685581234079436 -44.339238844680295 41.86437213342595 -9.993730958287036e-08 -5.692515917695402e-07 37.730662321310604 6.981590893063933e-07 -51.57881423747859 12.136449517294512 -2.2069531490250793e-32 7.951386703658792e-16 3.1805546814635168e-15 67.14804466058904 -25.731891639573707 -19.400583461969134 3.0994897831522347e-06 -1.4537715061932598e-06 -46.90404715962813 -179.99999514258533 -37.65956880368026 177.6204991486717 0.0 0.0 3.1805546814635168e-15 100.75233682199176 77.93061010154888 -91.32608109215808 -148.9163648742954 -79.52109837550802 -119.08726373683635 66.94287096006515 63.98806578155448 -54.94038415599387 0.0 6.3611093629270335e-15 0.0 -91.80994379869844 57.64590437783375 85.91711634688302 115.44201459173718 -73.69825176434955 55.24053517705477 56.33677757310782 60.073289464994325 -67.04922774441745 -1.5902773407317582e-15 6.3611093629270335e-15 -3.1805546814635168e-15
